<svg width="147" height="47" viewBox="0 0 147 47" fill="none" xmlns="http://www.w3.org/2000/svg">
<path d="M87.7806 36.5298C85.3953 39.3153 83.169 41.9086 80.9745 44.5339C79.8614 45.8786 78.4938 46.7751 76.6809 46.4869C74.9317 46.2308 73.6595 45.2703 72.9916 43.5734C72.3555 41.9726 72.8008 40.5639 73.8821 39.3153C76.2356 36.5939 78.621 33.9045 80.9745 31.1831C81.3562 30.7349 81.706 30.2866 82.1513 29.7424C79.5115 26.7328 76.9671 23.7873 74.4228 20.8738C72.2919 18.4406 72.2601 16.0394 74.3592 14.2144C76.3947 12.3895 79.0662 12.7417 81.1335 15.1429C83.2962 17.7042 85.4589 20.2655 87.8124 23.0509C88.7348 21.9944 89.5617 21.0339 90.3886 20.0734C91.788 18.4086 93.1874 16.7117 94.6186 15.0789C96.6223 12.7737 99.262 12.4215 101.266 14.1504C103.365 15.9753 103.397 18.4086 101.298 20.8418C98.7532 23.7553 96.177 26.7008 93.4736 29.7744C95.3501 31.9515 97.1947 34.0646 99.0394 36.1777C99.9617 37.2342 100.948 38.2907 101.838 39.3793C103.428 41.3323 103.301 43.5734 101.552 45.2383C99.8345 46.9031 97.2265 47.0632 95.5091 45.3343C93.3146 43.0612 91.3109 40.5639 89.2436 38.1627C88.7666 37.6504 88.3531 37.1702 87.7806 36.5298ZM111.825 23.4031C111.825 29.4862 111.825 35.5693 111.857 41.6525C111.857 43.7655 112.906 45.2703 114.751 46.1347C116.564 46.9672 118.313 46.743 119.903 45.5264C121.398 44.4059 121.875 42.805 121.875 41.0121C121.875 34.865 121.907 28.7178 121.843 22.5707C121.843 21.3541 122.193 20.8418 123.433 20.9379C124.419 21.0339 125.437 21.0019 126.423 20.8738C128.49 20.5857 129.826 18.9849 129.794 16.9999C129.762 14.9828 128.395 13.446 126.328 13.2219C125.564 13.1259 124.801 13.0939 124.038 13.1579C123.211 13.2219 122.161 13.318 122.098 13.0298C121.939 12.1654 121.939 10.7567 122.32 9.95626C123.02 8.41948 124.547 8.38746 125.978 8.57956C127.123 8.73964 128.299 9.12384 129.444 9.12384C132.37 9.15585 134.056 6.27438 132.498 3.80912C131.798 2.68855 130.589 1.69604 129.381 1.15177C126.773 -0.0648546 123.942 -0.224936 121.112 0.223293C115.101 1.2158 112.175 4.83365 111.888 10.9808C111.793 12.8377 111.984 13.1899 109.789 13.2539C107.531 13.286 106.195 14.8548 106.164 16.9999C106.132 19.145 107.468 20.6177 109.694 20.9059C110.33 21.0019 110.966 21.0019 111.888 21.0659C111.825 21.9944 111.825 22.6988 111.825 23.4031ZM136.918 41.2682C136.95 44.3738 139.018 46.583 141.848 46.615C144.552 46.647 146.873 44.5339 146.937 41.5564C147.032 33.7764 147.032 25.9965 146.937 18.2165C146.905 15.1109 144.647 13.0298 141.785 13.0939C138.954 13.1579 136.95 15.303 136.918 18.4406C136.887 22.2185 136.918 25.9965 136.918 29.7744C136.918 33.5843 136.887 37.4263 136.918 41.2682ZM56.7395 41.0441C56.7714 44.3098 58.8068 46.5509 61.6692 46.583C64.5952 46.615 66.7579 44.3098 66.7897 41.0121C66.8215 33.5523 66.8215 26.1245 66.7897 18.6647C66.7897 15.303 64.6907 13.0618 61.7328 13.0618C58.7432 13.0618 56.7714 15.271 56.7395 18.6967C56.7077 22.3466 56.7395 26.0285 56.7395 29.6783C56.7395 33.4883 56.7077 37.2662 56.7395 41.0441ZM147 5.15381C147 2.56049 144.679 0.287325 141.975 0.255309C139.177 0.223293 136.855 2.43242 136.855 5.18583C136.855 7.84318 139.081 10.0523 141.816 10.0523C144.615 10.0843 147 7.81117 147 5.15381ZM66.6625 5.15381C66.6625 2.56049 64.3408 0.287325 61.6374 0.255309C58.8386 0.223293 56.5169 2.43242 56.5169 5.18583C56.5169 7.84318 58.7432 10.0523 61.4784 10.0523C64.2772 10.0843 66.6625 7.81117 66.6625 5.15381ZM12.5314 9.34795C13.2311 9.54005 13.899 9.57207 14.5033 9.444C15.2984 9.31594 16.1253 9.57207 16.6978 10.1484L17.97 11.429C18.5743 12.0373 18.8605 12.9338 18.6697 13.7982C18.5107 14.5666 18.5107 15.4311 18.8287 16.3275C19.3694 17.8643 20.7052 19.0809 22.2954 19.3691C25.2532 19.9133 27.8293 17.6402 27.8293 14.7587C27.8293 14.4065 27.7975 14.0544 27.7021 13.7342C27.5113 12.9018 27.7975 12.0053 28.4018 11.397L29.6422 10.1484C30.2465 9.54005 31.0734 9.28392 31.9003 9.444C32.6318 9.57207 33.4269 9.54005 34.2856 9.2519C35.8441 8.67561 37.0526 7.26689 37.3071 5.60204C37.8159 2.36839 35.0171 -0.385018 31.7731 0.255309C30.1829 0.543456 28.7835 1.85613 28.3064 3.52098C28.052 4.41743 28.0838 5.28188 28.3064 6.08228C28.5608 6.97874 28.3064 7.93923 27.6385 8.57956L26.6844 9.54005C26.0801 10.1484 25.1896 10.4685 24.3309 10.2444C23.981 10.1484 23.5994 10.0843 23.2177 10.0843C22.8042 10.0843 22.4226 10.1484 22.0727 10.2444C21.2458 10.4685 20.3235 10.1804 19.7192 9.54005L18.8605 8.67561C18.1926 8.00327 17.97 7.04277 18.2244 6.14632C18.447 5.34591 18.4788 4.48147 18.2562 3.58501C17.811 1.92016 16.4434 0.607489 14.7577 0.287325C11.4819 -0.449051 8.65128 2.33637 9.19196 5.60204C9.4782 7.39495 10.814 8.86771 12.5314 9.34795ZM34.3492 37.9065C33.5223 37.6184 32.6954 37.5544 31.9639 37.7144C31.137 37.8745 30.3101 37.5864 29.7058 37.0101L28.4654 35.7614C27.8611 35.1531 27.5749 34.2567 27.7657 33.4242C27.8293 33.1041 27.893 32.7519 27.893 32.3997C27.893 29.5182 25.3168 27.2451 22.359 27.7894C20.7688 28.0775 19.433 29.2941 18.8923 30.8309C18.5743 31.7274 18.5425 32.5598 18.7333 33.3602C18.9241 34.2247 18.6697 35.0891 18.0336 35.7294L16.7614 37.0101C16.1889 37.5864 15.362 37.8745 14.5669 37.7144C13.9308 37.6184 13.2629 37.6184 12.595 37.8105C10.8776 38.2907 9.51 39.7635 9.22376 41.5244C8.68309 44.79 11.5455 47.5755 14.7895 46.9031C16.4434 46.5509 17.8428 45.2383 18.288 43.6054C18.5107 42.709 18.5107 41.8125 18.2562 41.0441C18.0018 40.1477 18.2562 39.1872 18.8923 38.5148L19.751 37.6504C20.3553 37.0421 21.2458 36.7219 22.1045 36.946C22.4862 37.0421 22.8679 37.1061 23.2495 37.1061C23.6312 37.1061 24.0128 37.0421 24.3627 36.946C25.1896 36.7219 26.0801 37.0101 26.7162 37.6504L27.6703 38.6109C28.3064 39.2512 28.5608 40.2117 28.3382 41.1082C28.1156 41.8766 28.1156 42.773 28.3382 43.6695C28.7835 45.3343 30.2147 46.615 31.8685 46.9351C35.1125 47.5755 37.9113 44.8221 37.4025 41.5884C37.1162 39.8915 35.9077 38.4828 34.3492 37.9065ZM9.22376 32.3677C9.09655 31.5673 9.35098 30.7349 9.92346 30.1586L11.1956 28.8779C11.7999 28.2696 12.6904 27.9815 13.5492 28.1736C14.3125 28.3336 15.1712 28.3336 16.0617 28.0135C17.5883 27.4692 18.7969 26.1245 19.0831 24.5237C19.6238 21.5462 17.3657 18.9529 14.5033 18.9529C14.1534 18.9529 13.8036 18.9849 13.4856 19.0809C12.6586 19.273 11.7681 18.9849 11.1638 18.3766L9.92346 17.1279C9.31918 16.5196 9.06474 15.6872 9.22376 14.8548C9.35098 14.1184 9.31918 13.318 9.03294 12.4535C8.46046 10.8847 7.06106 9.66811 5.40724 9.41198C2.19499 8.86771 -0.540189 11.6851 0.0958992 14.9188C0.413943 16.6157 1.71792 18.0244 3.33995 18.4726C4.23047 18.7287 5.08919 18.6967 5.8843 18.4726C6.77482 18.2165 7.72896 18.4726 8.36504 19.145L9.31918 20.1054C9.92346 20.7138 10.2415 21.6102 10.0189 22.4747C9.92346 22.8268 9.85985 23.211 9.85985 23.5952C9.85985 24.0114 9.92346 24.3956 10.0189 24.7478C10.2415 25.5802 9.95527 26.5087 9.31918 27.117L8.46046 27.9815C7.79257 28.6538 6.83843 28.8779 5.94791 28.6218C5.1528 28.3977 4.29408 28.3657 3.40356 28.5898C1.74973 29.038 0.445748 30.4147 0.127704 32.1116C-0.540189 35.4093 2.22679 38.2587 5.47084 37.7144C7.22009 37.4263 8.71489 36.0496 9.16016 34.3207C9.31918 33.6804 9.35098 33.008 9.22376 32.3677ZM46.4349 32.1436C46.0851 30.4787 44.7811 29.07 43.1591 28.6218C42.2685 28.3977 41.378 28.3977 40.6147 28.6538C39.7242 28.9099 38.7701 28.6538 38.1022 28.0135L37.2434 27.149C36.6392 26.5407 36.3211 25.6443 36.5438 24.7798C36.6392 24.3956 36.7028 24.0114 36.7028 23.6272C36.7028 23.243 36.6392 22.8589 36.5438 22.5067C36.3211 21.6742 36.6074 20.7778 37.2434 20.1375L38.1976 19.177C38.8337 18.5366 39.7878 18.2805 40.6783 18.5046C41.4416 18.7287 42.3321 18.7287 43.2227 18.5046C44.8765 18.0564 46.1487 16.6157 46.4667 14.9508C47.1028 11.6851 44.3676 8.86771 41.1554 9.37997C39.5016 9.6361 38.1022 10.8527 37.5297 12.4215C37.2434 13.2539 37.1798 14.0864 37.3389 14.8227C37.4979 15.6552 37.2116 16.4876 36.6392 17.0959L35.3988 18.3445C34.7945 18.9529 33.904 19.241 33.0771 19.0489C32.759 18.9849 32.4092 18.9208 32.0593 18.9208C29.1969 18.9208 26.9388 21.5142 27.4795 24.4917C27.7657 26.0925 28.9743 27.4372 30.5009 27.9815C31.3914 28.3016 32.2183 28.3336 33.0135 28.1415C33.8722 27.9494 34.7309 28.2056 35.367 28.8459L36.6392 30.1266C37.2116 30.7029 37.4979 31.5353 37.3389 32.3357C37.2434 32.976 37.2434 33.6484 37.4343 34.3207C37.9113 36.0496 39.3743 37.4263 41.1236 37.7144C44.3676 38.2907 47.1346 35.4413 46.4349 32.1436Z" fill="url(#paint0_linear_307_283)"/>
<defs>
<linearGradient id="paint0_linear_307_283" x1="9.01942" y1="12.7016" x2="154.281" y2="35.4356" gradientUnits="userSpaceOnUse">
<stop offset="4.1024e-07" stop-color="#373ECC"/>
<stop offset="0.0119012" stop-color="#423DD1"/>
<stop offset="0.0482816" stop-color="#5C3BDF"/>
<stop offset="0.0881379" stop-color="#7139EA"/>
<stop offset="0.1327" stop-color="#8038F1"/>
<stop offset="0.1857" stop-color="#8837F6"/>
<stop offset="0.2689" stop-color="#8B37F7"/>
<stop offset="0.3633" stop-color="#B147E1"/>
<stop offset="0.5303" stop-color="#FD66B5"/>
<stop offset="0.6895" stop-color="#FB6E80"/>
<stop offset="0.7944" stop-color="#FA7262"/>
<stop offset="1" stop-color="#FFBB4D"/>
</linearGradient>
</defs>
</svg>
